<?xml version="1.0" encoding="utf-8"?>
<!-- Generator: Adobe Illustrator 21.0.0, SVG Export Plug-In . SVG Version: 6.00 Build 0)  -->
<svg version="1.1" baseProfile="tiny" id="Layer_1" xmlns="http://www.w3.org/2000/svg" xmlns:xlink="http://www.w3.org/1999/xlink"
	 x="0px" y="0px" viewBox="0 0 195.9 34.6" xml:space="preserve">
<g>
	<g>
		<path fill="#F15934" d="M41,15c-0.1-0.3,0.1-0.5,0.4-0.5h1.6c0.1,0,0.3,0.1,0.4,0.3l1.3,3.9h0l2.2-4.2c0-0.1,0.2-0.2,0.3-0.2h0.2
			c0.2,0,0.3,0.1,0.3,0.2l2.2,4.2h0l1.3-3.9c0.1-0.2,0.3-0.3,0.5-0.3h1.4c0.3,0,0.5,0.2,0.4,0.5l-2.7,8.2c0,0.1-0.2,0.2-0.4,0.2
			h-0.1c-0.2,0-0.3-0.1-0.3-0.2l-2.7-5.1h0l-2.7,5.1c-0.1,0.1-0.2,0.2-0.3,0.2H44c-0.2,0-0.3-0.1-0.4-0.2L41,15z"/>
		<path fill="#F15934" d="M59,14.3c2.2,0,4.1,1.7,4.1,4c0,0.2,0,0.4,0,0.6c0,0.2-0.2,0.4-0.4,0.4h-5.6c0.1,0.9,0.8,1.9,2.1,1.9
			c0.7,0,1.3-0.3,1.7-0.5c0.2-0.1,0.4-0.2,0.6,0l0.9,1c0.2,0.2,0.2,0.4,0,0.6c-0.7,0.7-1.8,1.2-3.2,1.2c-2.6,0-4.4-2.1-4.4-4.6
			C54.6,16.4,56.4,14.3,59,14.3z M60.5,17.8c-0.1-0.8-0.8-1.5-1.6-1.5c-0.9,0-1.6,0.7-1.7,1.5H60.5z"/>
		<path fill="#F15934" d="M64.9,8.4c0-0.2,0.2-0.4,0.4-0.4h1.8c0.2,0,0.4,0.2,0.4,0.4v14.4c0,0.2-0.2,0.4-0.4,0.4h-1.8
			c-0.2,0-0.4-0.2-0.4-0.4V8.4z"/>
		<path fill="#F15934" d="M74.1,14.3c1.3,0,2.4,0.5,3.2,1.5c0.2,0.2,0.1,0.5-0.1,0.6l-1,1c-0.2,0.2-0.4,0.1-0.5-0.1
			c-0.3-0.4-0.9-0.7-1.5-0.7c-1.2,0-2.1,1-2.1,2.2c0,1.2,0.9,2.2,2.1,2.2c0.9,0,1.3-0.5,1.7-0.8c0.2-0.2,0.4-0.2,0.5-0.1l0.9,0.8
			c0.2,0.2,0.3,0.4,0.2,0.6c-0.7,1.2-1.9,1.8-3.4,1.8c-2.5,0-4.6-2-4.6-4.6C69.5,16.3,71.7,14.3,74.1,14.3z"/>
		<path fill="#F15934" d="M83.2,14.3c2.5,0,4.4,2.1,4.4,4.5c0,2.5-2,4.6-4.4,4.6c-2.5,0-4.4-2.1-4.4-4.6
			C78.7,16.4,80.7,14.3,83.2,14.3z M83.2,21.1c1.1,0,2.1-1,2.1-2.2c0-1.2-0.9-2.2-2.1-2.2c-1.2,0-2.1,1-2.1,2.2
			C81.1,20.1,82,21.1,83.2,21.1z"/>
		<path fill="#F15934" d="M89.6,14.9c0-0.2,0.2-0.4,0.4-0.4h0.8c0.2,0,0.3,0.1,0.4,0.2l0.3,0.8c0.4-0.4,1.4-1.3,2.9-1.3
			c1.2,0,2.1,0.5,2.8,1.3c0.4-0.4,1.5-1.3,3.1-1.3c2.8,0,3.8,2.1,3.8,4.3v4.1c0,0.2-0.2,0.4-0.4,0.4h-1.8c-0.2,0-0.4-0.2-0.4-0.4
			v-4.3c0-1.1-0.5-1.8-1.6-1.8c-1.3,0-1.8,0.9-1.8,0.9s0,0.4,0,0.8v4.4c0,0.2-0.2,0.4-0.4,0.4H96c-0.2,0-0.4-0.2-0.4-0.4v-4.3
			c0-1.1-0.5-1.8-1.6-1.8c-1.1,0-1.6,0.8-1.8,1.4v4.8c0,0.2-0.2,0.4-0.4,0.4H90c-0.2,0-0.4-0.2-0.4-0.4V14.9z"/>
		<path fill="#F15934" d="M110.3,14.3c2.2,0,4.1,1.7,4.1,4c0,0.2,0,0.4,0,0.6c0,0.2-0.2,0.4-0.4,0.4h-5.6c0.1,0.9,0.8,1.9,2.1,1.9
			c0.7,0,1.3-0.3,1.7-0.5c0.2-0.1,0.4-0.2,0.6,0l0.9,1c0.2,0.2,0.2,0.4,0,0.6c-0.7,0.7-1.8,1.2-3.2,1.2c-2.6,0-4.4-2.1-4.4-4.6
			C105.8,16.4,107.7,14.3,110.3,14.3z M111.8,17.8c-0.1-0.8-0.8-1.5-1.6-1.5c-0.9,0-1.6,0.7-1.7,1.5H111.8z"/>
		<g>
			<path fill="#F15934" d="M116.9,11.1c0-0.6,0.5-1,1-1c0.6,0,1,0.5,1,1c0,0.6-0.5,1-1,1C117.4,12.1,116.9,11.7,116.9,11.1z
				 M117.3,14.9c0-0.2,0.2-0.4,0.4-0.4h0.7c0.2,0,0.4,0.2,0.4,0.4v7.9c0,0.2-0.2,0.4-0.4,0.4h-0.7c-0.2,0-0.4-0.2-0.4-0.4V14.9z"/>
			<path fill="#F15934" d="M121.8,14.9c0-0.2,0.2-0.4,0.4-0.4h0.4c0.2,0,0.3,0.1,0.3,0.3l0.2,0.7c0,0,1.2-1.2,3-1.2
				c2.5,0,3.4,1.6,3.4,3.9v4.6c0,0.2-0.2,0.4-0.4,0.4h-0.7c-0.2,0-0.4-0.2-0.4-0.4v-4.6c0-1.6-0.7-2.5-2-2.5c-1.6,0-2.8,1.2-2.8,1.2
				v5.8c0,0.2-0.2,0.4-0.4,0.4h-0.7c-0.2,0-0.4-0.2-0.4-0.4V14.9z"/>
			<path fill="#F15934" d="M136.1,14.3c1.4,0,2.3,0.6,2.3,0.6V8.4c0-0.2,0.2-0.4,0.4-0.4h0.7c0.2,0,0.4,0.2,0.4,0.4v14.4
				c0,0.2-0.2,0.4-0.4,0.4h-0.5c-0.2,0-0.3-0.2-0.4-0.3l-0.1-0.6c0,0-1,1.2-2.7,1.2c-2.2,0-3.9-2.1-3.9-4.6
				C131.9,16.3,133.5,14.3,136.1,14.3z M136.1,22.1c1.6,0,2.4-1.4,2.4-1.4v-4.3c0,0-0.9-0.5-2.1-0.5c-1.9,0-2.8,1.4-2.8,3.1
				C133.5,20.6,134.5,22.1,136.1,22.1z"/>
			<path fill="#F15934" d="M142.9,14.9c0-0.2,0.2-0.4,0.4-0.4h0.7c0.2,0,0.4,0.2,0.4,0.4v4.6c0,1.6,0.7,2.5,2,2.5
				c1.6,0,2.6-1.2,2.6-1.2c0-0.5,0-1,0-5.8c0-0.2,0.2-0.4,0.4-0.4h0.7c0.2,0,0.4,0.2,0.4,0.4v7.9c0,0.2-0.2,0.4-0.4,0.4h-0.4
				c-0.2,0-0.3-0.2-0.4-0.4l-0.2-0.6c0,0-1,1.2-2.8,1.2c-2.5,0-3.4-1.6-3.4-3.9V14.9z"/>
			<path fill="#F15934" d="M153.1,22c0.1-0.1,0.2-0.4,0.3-0.5c0.1-0.2,0.3-0.2,0.6-0.1c0,0,0.9,0.8,2,0.8c0.9,0,1.4-0.5,1.4-1
				c0-0.8-0.7-1.1-1.9-1.7c-1.1-0.6-2.5-1.3-2.5-2.8c0-0.9,0.7-2.3,2.8-2.3c1.1,0,2,0.4,2.4,0.7c0.2,0.1,0.3,0.4,0.1,0.7l-0.2,0.3
				c-0.1,0.2-0.4,0.3-0.6,0.2c0,0-0.9-0.5-1.7-0.5c-1,0-1.2,0.5-1.2,0.9c0,0.7,0.7,1,1.6,1.5c1.5,0.7,2.8,1.4,2.8,3
				c0,1.3-1.2,2.5-3,2.5c-1.5,0-2.3-0.6-2.8-1C153.1,22.4,153,22.2,153.1,22z"/>
			<path fill="#F15934" d="M161.9,15.8h-1.1c-0.2,0-0.4-0.2-0.4-0.4v-0.5c0-0.2,0.2-0.4,0.4-0.4h1.1v-2.4c0-0.2,0.2-0.4,0.4-0.4
				l0.7,0c0.2,0,0.4,0.2,0.4,0.4v2.5h2.5c0.2,0,0.4,0.2,0.4,0.4v0.5c0,0.2-0.2,0.4-0.4,0.4h-2.5v5.1c0,0.9,0.2,1,0.7,1
				c0.5,0,1.3-0.3,1.6-0.5c0.3-0.2,0.4,0,0.5,0.1l0.3,0.5c0.2,0.3,0.1,0.4-0.2,0.5c-0.3,0.2-1.5,0.7-2.5,0.7c-1.7,0-2-1-2-2.4V15.8z
				"/>
			<path fill="#F15934" d="M168.7,14.9c0-0.2,0.2-0.4,0.4-0.4h0.4c0.2,0,0.3,0.1,0.4,0.3l0.2,0.6c0,0,0.8-1.2,2.6-1.2
				c0.7,0,1.7,0.1,1.5,0.7l-0.3,0.7c-0.1,0.3-0.3,0.3-0.5,0.2c-0.2-0.1-0.5-0.2-0.8-0.2c-1.6,0-2.4,1.2-2.4,1.2v5.8
				c0,0.2-0.2,0.4-0.4,0.4h-0.7c-0.2,0-0.4-0.2-0.4-0.4V14.9z"/>
			<path fill="#F15934" d="M175.7,11.1c0-0.6,0.5-1,1-1c0.6,0,1,0.5,1,1c0,0.6-0.5,1-1,1C176.1,12.1,175.7,11.7,175.7,11.1z
				 M176,14.9c0-0.2,0.2-0.4,0.4-0.4h0.7c0.2,0,0.4,0.2,0.4,0.4v7.9c0,0.2-0.2,0.4-0.4,0.4h-0.7c-0.2,0-0.4-0.2-0.4-0.4V14.9z"/>
			<path fill="#F15934" d="M184.2,14.3c2.3,0,3.9,1.7,3.9,4c0,0.2,0,0.4,0,0.6c0,0.2-0.2,0.4-0.4,0.4h-6.2c0.1,1.5,1.4,2.8,2.9,2.8
				c0.9,0,1.6-0.3,2.1-0.7c0.3-0.2,0.4-0.3,0.6,0c0.1,0.2,0.2,0.3,0.4,0.5c0.2,0.2,0.2,0.3-0.1,0.6c-0.5,0.4-1.7,1-3.2,1
				c-2.6,0-4.3-2.1-4.3-4.6C179.9,16.4,181.6,14.3,184.2,14.3z M186.6,18c-0.1-1.3-1.1-2.4-2.4-2.4c-1.5,0-2.6,1-2.7,2.4H186.6z"/>
			<path fill="#F15934" d="M190,22c0.1-0.1,0.2-0.4,0.3-0.5c0.1-0.2,0.3-0.2,0.6-0.1c0,0,0.9,0.8,2,0.8c0.9,0,1.4-0.5,1.4-1
				c0-0.8-0.7-1.1-1.9-1.7c-1.1-0.6-2.5-1.3-2.5-2.8c0-0.9,0.7-2.3,2.8-2.3c1.1,0,2,0.4,2.4,0.7c0.2,0.1,0.3,0.4,0.1,0.7L195,16
				c-0.1,0.2-0.4,0.3-0.6,0.2c0,0-0.9-0.5-1.7-0.5c-1,0-1.2,0.5-1.2,0.9c0,0.7,0.7,1,1.6,1.5c1.5,0.7,2.8,1.4,2.8,3
				c0,1.3-1.2,2.5-3,2.5c-1.5,0-2.3-0.6-2.8-1C190,22.4,189.9,22.2,190,22z"/>
		</g>
	</g>
	<path fill="#F15934" d="M32.3,11.2L32.3,11.2C32.3,11.2,32.3,11.2,32.3,11.2C32.3,11.1,32.3,11.1,32.3,11.2L24.7,0.6
		C24.3,0,23.6-0.2,23,0.1l-6.7,3.2L9.6,0.1C9-0.2,8.3,0,7.9,0.6L0.3,11.1c0,0,0,0,0,0c0,0,0,0,0,0C0.1,11.4,0,11.7,0,11.9v12.8
		c0,0.5,0.3,0.9,0.7,1.2l14.9,8.5c0,0,0,0,0,0c0.1,0,0.2,0.1,0.2,0.1c0,0,0.1,0,0.1,0c0.1,0,0.2,0,0.3,0c0.1,0,0.2,0,0.3,0
		c0,0,0.1,0,0.1,0c0.1,0,0.2-0.1,0.2-0.1c0,0,0,0,0,0l14.9-8.5c0.4-0.2,0.7-0.7,0.7-1.2V11.9C32.6,11.7,32.5,11.4,32.3,11.2z
		 M23.1,3.1l3.8,5.3l-2.4-1.2l-5.1-2.4L23.1,3.1z M10.7,9l5.6-2.7L21.9,9l-5.6,6.7L10.7,9z M9.4,3.1l3.7,1.7L8,7.2L5.6,8.4L9.4,3.1z
		 M2.7,12.8l5.5-2.6l6.7,8.3v12.4l-12.2-7V12.8z M29.8,23.9l-12.2,7V18.5l6.7-8.3l5.5,2.6V23.9z"/>
</g>
</svg>
