<?xml version="1.0" encoding="utf-8"?>
<!-- Generator: Adobe Illustrator 16.0.0, SVG Export Plug-In . SVG Version: 6.00 Build 0)  -->
<!DOCTYPE svg PUBLIC "-//W3C//DTD SVG 1.1//EN" "http://www.w3.org/Graphics/SVG/1.1/DTD/svg11.dtd">
<svg version="1.1" xmlns="http://www.w3.org/2000/svg" xmlns:xlink="http://www.w3.org/1999/xlink" x="0px" y="0px" width="50px"
	 height="50px" viewBox="0 0 50 50" enable-background="new 0 0 50 50" xml:space="preserve">
<g id="Layer_3">
</g>
<g id="Layer_2">
</g>
<g id="Layer_1">
	<g>
		<path fill="#121212" d="M38.836,34.125l-2.58-11.664h-0.043l-2.537,11.664h-3.39l-4.03-17.137h3.348l2.41,11.665h0.042
			l2.644-11.665h3.135l2.602,11.809h0.042l2.495-11.809h3.283l-4.094,17.137H38.836z"/>
	</g>
	<g>
		<path fill="#121212" d="M23.193,22.42l-11.664,2.579v0.044l11.664,2.537v3.39L6.057,35v-3.348l11.665-2.41V29.2L6.057,26.556
			v-3.134l11.809-2.602v-0.043L6.057,18.283V15l17.137,4.094V22.42z"/>
	</g>
	<polygon fill="#343434" points="17.865,20.777 23.193,22.42 11.529,24.999 6.057,23.422 	"/>
	<polyline fill="#343434" points="17.722,29.2 23.193,30.97 6.057,35 6.057,31.652 	"/>
	<polyline fill="#343434" points="32.014,28.653 33.676,34.125 36.256,22.461 34.699,16.988 	"/>
	<polygon fill="#343434" points="40.478,28.797 42.162,34.125 46.256,16.988 42.973,16.988 	"/>
</g>
</svg>
