<?xml version="1.0" encoding="utf-8"?>
<!-- Generator: Adobe Illustrator 16.0.0, SVG Export Plug-In . SVG Version: 6.00 Build 0)  -->
<!DOCTYPE svg PUBLIC "-//W3C//DTD SVG 1.1//EN" "http://www.w3.org/Graphics/SVG/1.1/DTD/svg11.dtd">
<svg version="1.1" id="Layer_2" xmlns="http://www.w3.org/2000/svg" xmlns:xlink="http://www.w3.org/1999/xlink" x="0px" y="0px"
	 width="75px" height="75px" viewBox="0 0 75 75" enable-background="new 0 0 75 75" xml:space="preserve">
<g id="_x35_U2QMf.tif">
	<g>
		<path fill-rule="evenodd" clip-rule="evenodd" fill="#DDDCDC" d="M16.182,27.773c0.153-0.968,0.246-1.95,0.47-2.901
			c0.746-3.161,1.782-5.206,4.331-7.225c0.653-0.517,1.891-1.634,2.543-2.152c1.467-1.165,3.027-1.094,4.371,0.211
			c0.509,0.494,1.033,1.002,1.416,1.591c1.072,1.647,2.129,3.31,3.078,5.029c0.406,0.735,0.63,1.611,0.76,2.45
			c0.253,1.64-0.443,2.954-1.681,3.995c-0.868,0.731-1.74,1.461-2.646,2.142c-1.315,0.988-1.719,2.279-1.395,3.845
			c0.352,1.698,1.215,3.161,2.198,4.545c1.874,2.639,3.977,5.082,6.476,7.157c1.123,0.933,2.317,1.754,3.77,2.105
			c1.288,0.312,2.383-0.032,3.332-0.939c0.875-0.836,1.743-1.685,2.661-2.472c1.65-1.414,3.487-1.606,5.386-0.55
			c0.842,0.468,1.671,0.992,2.41,1.606c1.303,1.082,2.553,2.232,3.782,3.398c0.409,0.389,0.735,0.888,1.021,1.382
			c0.769,1.333,0.672,2.638-0.432,3.697c-1.493,1.433-2.958,2.914-4.786,3.953c-2.235,1.271-4.631,1.889-7.202,1.874
			c-3.705-0.021-7.023-1.273-10.142-3.155c-2.978-1.797-5.583-4.057-7.983-6.557c-3.241-3.377-6.171-6.995-8.447-11.106
			c-1.476-2.665-2.585-5.466-3.061-8.492c-0.099-0.625-0.154-1.258-0.229-1.887C16.182,28.803,16.182,28.288,16.182,27.773z"/>
	</g>
</g>
</svg>
