<svg xmlns="http://www.w3.org/2000/svg" width="253px" height="40px" viewBox="21.755 10.479 253 40"><style>.style0{fill:	none;}.style1{fill:	#571963;}.style2{fill:	#666666;}</style><g><path d="M40.361 45.386c-0.192-0.287-0.441-0.515-0.749-0.687c-0.308-0.171-0.682-0.257-1.123-0.257 s-0.815 0.086-1.122 0.257c-0.308 0.172-0.558 0.399-0.748 0.687c-0.192 0.284-0.331 0.611-0.418 1 c-0.088 0.365-0.131 0.745-0.131 1.132c0 0.4 0 0.7 0.1 1.091c0.087 0.4 0.2 0.7 0.4 1 c0.19 0.3 0.4 0.5 0.7 0.681c0.307 0.2 0.7 0.3 1.1 0.255s0.815-0.085 1.123-0.255 c0.307-0.171 0.557-0.398 0.749-0.681c0.191-0.281 0.33-0.601 0.417-0.957c0.088-0.351 0.131-0.715 0.131-1.091 c0-0.387-0.043-0.767-0.131-1.132C40.691 46 40.6 45.7 40.4 45.386z" class="style0"/><path d="M51.423 47.973h-2.145v2.507h2.145c0.44 0 0.775-0.099 1.004-0.299c0.228-0.201 0.342-0.524 0.342-0.975 c0-0.43-0.115-0.743-0.342-0.939C52.199 48.1 51.9 48 51.4 47.973z" class="style0"/><path d="M230.418 47.973h-2.146v2.507h2.146c0.441 0 0.774-0.099 1.003-0.299c0.229-0.201 0.343-0.524 0.343-0.975 c0-0.43-0.114-0.743-0.343-0.939C231.193 48.1 230.9 48 230.4 47.973z" class="style0"/><path d="M145.66 47.973h-2.145v2.507h2.145c0.441 0 0.775-0.099 1.004-0.299c0.229-0.201 0.342-0.524 0.342-0.975 c0-0.43-0.114-0.743-0.342-0.939S146.101 48 145.7 47.973z" class="style0"/><g><path d="M64.542 19.898c-0.324-0.49-0.744-0.882-1.259-1.179c-0.517-0.294-1.146-0.442-1.884-0.442 c-0.757 0-1.403 0.143-1.938 0.429c-0.537 0.286-0.975 0.668-1.315 1.148c-0.342 0.481-0.591 1.035-0.748 1.7 c-0.157 0.627-0.235 1.283-0.235 1.965c0 0.6 0.1 1.3 0.2 1.939c0.13 0.6 0.3 1.2 0.7 1.8 c0.314 0.5 0.7 1 1.2 1.275c0.518 0.3 1.2 0.5 1.9 0.482c0.774 0 1.435-0.16 1.98-0.482 c0.544-0.324 0.983-0.748 1.315-1.275c0.333-0.525 0.577-1.121 0.734-1.785c0.157-0.664 0.235-1.33 0.235-1.994 c0-0.627-0.074-1.246-0.221-1.854C65.101 20.9 64.9 20.4 64.5 19.898z" class="style0"/><path d="M50.142 20.742c-0.212-0.5-0.499-0.928-0.858-1.287c-0.361-0.361-0.789-0.646-1.287-0.859 c-0.499-0.212-1.035-0.318-1.607-0.318c-0.61 0-1.159 0.105-1.648 0.318c-0.49 0.213-0.911 0.502-1.26 0.9 c-0.351 0.37-0.628 0.798-0.831 1.286c-0.203 0.49-0.324 1.01-0.36 1.566l0 0h8.226C50.479 21.8 50.4 21.2 50.1 20.742z" class="style0"/><path d="M121.428 20.742c-0.212-0.5-0.499-0.928-0.859-1.287c-0.36-0.361-0.789-0.646-1.287-0.859 c-0.498-0.212-1.035-0.318-1.607-0.318c-0.609 0-1.159 0.105-1.647 0.318c-0.489 0.213-0.91 0.502-1.26 0.9 c-0.351 0.37-0.628 0.798-0.831 1.286c-0.204 0.49-0.324 1.01-0.36 1.566l0 0h8.226C121.766 21.8 121.6 21.2 121.4 20.742z " class="style0"/><path d="M78.321 24.08c-0.37 0.064-0.762 0.119-1.177 0.164c-0.416 0.047-0.818 0.107-1.206 0.2 s-0.756 0.166-1.108 0.279c-0.35 0.109-0.655 0.262-0.914 0.453c-0.258 0.195-0.467 0.439-0.624 0.7 c-0.155 0.297-0.234 0.668-0.234 1.109c0 0.4 0.1 0.7 0.2 0.984c0.157 0.3 0.4 0.5 0.6 0.7 c0.25 0.2 0.5 0.3 0.9 0.359c0.333 0.1 0.7 0.1 1.1 0.111c0.775 0 1.44-0.107 1.994-0.318s1.006-0.48 1.356-0.803 c0.35-0.324 0.609-0.674 0.776-1.053s0.25-0.736 0.25-1.068v-2.406c-0.222 0.166-0.499 0.295-0.832 0.4 C79.041 23.9 78.7 24 78.3 24.08z" class="style0"/><path d="M104.922 15.273c-0.526-0.652-1.205-1.153-2.036-1.506c-0.831-0.353-1.855-0.53-3.074-0.53H95.38v15.453 h4.376c0.294 0 0.664-0.023 1.107-0.068c0.444-0.047 0.914-0.158 1.412-0.338c0.499-0.176 0.992-0.43 1.482-0.766 s0.928-0.791 1.315-1.367c0.388-0.576 0.706-1.295 0.955-2.16c0.25-0.865 0.375-1.91 0.375-3.139c0-1.19-0.117-2.255-0.348-3.193 C105.827 16.7 105.4 15.9 104.9 15.273z" class="style0"/><path d="M271.725 20.742c-0.213-0.5-0.499-0.928-0.857-1.287c-0.362-0.361-0.791-0.646-1.289-0.859 c-0.499-0.212-1.035-0.318-1.607-0.318c-0.609 0-1.158 0.105-1.647 0.318c-0.491 0.213-0.91 0.502-1.261 0.9 c-0.35 0.37-0.628 0.798-0.83 1.286c-0.205 0.49-0.324 1.01-0.36 1.566l0 0h8.225C272.062 21.8 271.9 21.2 271.7 20.742z" class="style0"/><path d="M155.823 19.898c-0.324-0.49-0.744-0.882-1.26-1.179c-0.517-0.294-1.145-0.442-1.884-0.442 c-0.755 0-1.402 0.143-1.938 0.429c-0.535 0.286-0.974 0.668-1.315 1.148c-0.343 0.481-0.591 1.035-0.748 1.7 s-0.235 1.283-0.235 1.965c0 0.6 0.1 1.3 0.2 1.939c0.13 0.6 0.4 1.2 0.7 1.8 c0.313 0.5 0.7 1 1.2 1.275c0.516 0.3 1.2 0.5 1.9 0.482c0.775 0 1.435-0.158 1.98-0.482 c0.545-0.324 0.983-0.748 1.314-1.275c0.333-0.525 0.578-1.121 0.734-1.785s0.234-1.33 0.234-1.994 c0-0.627-0.074-1.246-0.221-1.854C156.382 20.9 156.1 20.4 155.8 19.898z" class="style0"/><g><path d="M154.501 18.828c-0.496-0.283-1.11-0.426-1.822-0.426c-0.732 0-1.365 0.139-1.878 0.4 c-0.518 0.277-0.945 0.65-1.273 1.111c-0.33 0.462-0.575 1.008-0.729 1.619c-0.154 0.613-0.231 1.264-0.231 1.9 c0 0.6 0.1 1.3 0.2 1.914c0.126 0.6 0.3 1.2 0.7 1.719c0.303 0.5 0.7 0.9 1.2 1.2 c0.494 0.3 1.1 0.5 1.9 0.465c0.751 0 1.397-0.156 1.917-0.467c0.524-0.311 0.952-0.725 1.274-1.234 c0.324-0.514 0.565-1.102 0.718-1.748c0.154-0.652 0.231-1.314 0.231-1.965c0-0.613-0.073-1.227-0.218-1.824 c-0.142-0.59-0.373-1.129-0.688-1.61C155.409 19.5 155 19.1 154.5 18.828z" class="style0"/><path d="M104.971 26.082c0.378-0.562 0.694-1.277 0.938-2.127c0.245-0.85 0.37-1.895 0.37-3.104 c0-1.173-0.116-2.237-0.343-3.164c-0.225-0.916-0.598-1.703-1.11-2.336c-0.511-0.632-1.18-1.127-1.988-1.47 c-0.813-0.345-1.832-0.521-3.025-0.521h-4.307v15.206h4.251c0.289 0 0.657-0.023 1.094-0.07c0.436-0.045 0.902-0.156 1.383-0.33 c0.487-0.17 0.976-0.422 1.454-0.752C104.163 27.1 104.6 26.6 105 26.082z" class="style0"/><path d="M114.051 20.803c-0.182 0.436-0.296 0.904-0.341 1.395h7.957c-0.045-0.488-0.164-0.959-0.353-1.406 c-0.205-0.48-0.485-0.9-0.833-1.248c-0.347-0.346-0.767-0.626-1.248-0.833c-0.48-0.204-1.004-0.308-1.559-0.308 c-0.589 0-1.127 0.104-1.598 0.308c-0.473 0.207-0.883 0.491-1.219 0.843C114.516 19.9 114.2 20.3 114.1 20.803z" class="style0"/><path d="M99.535 10.952h-6.909v20.023h6.909c1.651 0 3.101-0.234 4.31-0.701c1.212-0.465 2.226-1.154 3.012-2.043 c0.784-0.885 1.37-1.99 1.743-3.287c0.371-1.287 0.559-2.785 0.559-4.452c0-3.195-0.842-5.611-2.504-7.179 C104.995 11.7 102.6 11 99.5 10.952z M100.851 28.496c-0.438 0.047-0.805 0.07-1.094 0.07h-4.251V13.36h4.307 c1.193 0 2.2 0.2 3 0.521c0.808 0.3 1.5 0.8 2 1.47c0.513 0.6 0.9 1.4 1.1 2.3 c0.228 0.9 0.3 2 0.3 3.164c0 1.209-0.125 2.254-0.37 3.104c-0.244 0.85-0.56 1.564-0.938 2.1 c-0.377 0.561-0.808 1.008-1.283 1.332c-0.478 0.33-0.967 0.582-1.454 0.752C101.753 28.3 101.3 28.5 100.9 28.496z" class="style1"/><path d="M123.111 18.931c-0.517-0.827-1.211-1.516-2.061-2.047c-0.855-0.536-1.944-0.808-3.238-0.808 c-0.992 0-1.917 0.19-2.75 0.565c-0.834 0.375-1.565 0.907-2.174 1.581c-0.606 0.671-1.084 1.482-1.423 2.4 c-0.336 0.922-0.506 1.938-0.506 3.023c0.037 1.1 0.2 2.1 0.5 3.053c0.29 0.9 0.7 1.8 1.3 2.4 c0.579 0.7 1.3 1.2 2.2 1.602c0.852 0.4 1.9 0.6 3 0.576c1.647 0 3.034-0.428 4.121-1.273 c1.09-0.846 1.804-2.092 2.122-3.701l0.03-0.15h-2.579l-0.021 0.1c-0.195 0.906-0.606 1.59-1.225 2 c-0.621 0.443-1.417 0.668-2.365 0.668c-0.754 0-1.417-0.125-1.969-0.377c-0.553-0.248-1.013-0.588-1.37-1.006 c-0.354-0.414-0.616-0.902-0.778-1.449c-0.154-0.518-0.226-1.053-0.22-1.627h10.716l0.005-0.119 c0.037-0.877-0.043-1.809-0.238-2.771C123.983 20.7 123.6 19.8 123.1 18.931z M117.674 18.4 c0.554 0 1.1 0.1 1.6 0.308c0.481 0.2 0.9 0.5 1.2 0.833c0.348 0.3 0.6 0.8 0.8 1.2 c0.189 0.4 0.3 0.9 0.4 1.406h-7.957c0.045-0.49 0.159-0.959 0.341-1.395c0.193-0.47 0.465-0.89 0.806-1.25 c0.336-0.352 0.746-0.636 1.219-0.843C116.547 18.5 117.1 18.4 117.7 18.402z" class="style1"/><path d="M136.592 23.697c-0.445-0.311-0.96-0.562-1.529-0.748c-0.571-0.186-1.157-0.346-1.741-0.473 c-0.554-0.129-1.109-0.254-1.664-0.375c-0.546-0.119-1.043-0.266-1.477-0.438c-0.427-0.168-0.782-0.379-1.056-0.627 c-0.261-0.236-0.388-0.541-0.388-0.932c0-0.322 0.084-0.594 0.251-0.812c0.169-0.221 0.396-0.398 0.674-0.53 c0.282-0.133 0.601-0.228 0.949-0.28c0.728-0.113 1.472-0.115 2.2 0.04c0.361 0.1 0.7 0.2 1 0.4 c0.288 0.2 0.5 0.4 0.7 0.698c0.199 0.3 0.3 0.7 0.4 1.09l0.009 0.113h2.602l-0.009-0.131 c-0.056-0.884-0.247-1.632-0.569-2.228c-0.322-0.597-0.76-1.078-1.301-1.43c-0.538-0.348-1.167-0.597-1.872-0.737 c-0.692-0.139-1.452-0.209-2.254-0.209c-0.637 0-1.286 0.08-1.926 0.24c-0.647 0.16-1.238 0.409-1.755 0.7 c-0.52 0.333-0.952 0.773-1.285 1.308c-0.334 0.539-0.504 1.189-0.504 1.934c0 0.7 0.1 1.3 0.4 1.8 c0.273 0.5 0.6 0.9 1.1 1.184c0.45 0.3 1 0.5 1.5 0.738c0.55 0.2 1.1 0.3 1.7 0.5 c0.592 0.1 1.2 0.3 1.7 0.373c0.549 0.1 1 0.3 1.5 0.447c0.418 0.2 0.8 0.4 1 0.7 c0.244 0.3 0.4 0.6 0.4 1.02c0 0.414-0.1 0.742-0.306 1.006c-0.206 0.266-0.474 0.469-0.795 0.6 c-0.332 0.141-0.699 0.24-1.089 0.293c-0.92 0.117-1.73 0.102-2.52-0.055c-0.438-0.092-0.835-0.24-1.181-0.443 c-0.339-0.199-0.619-0.471-0.831-0.803c-0.208-0.332-0.323-0.758-0.339-1.27l-0.004-0.121h-2.605l0.005 0.1 c0.037 0.9 0.2 1.7 0.6 2.311c0.343 0.6 0.8 1.2 1.4 1.539c0.565 0.4 1.2 0.7 1.9 0.8 c0.716 0.2 1.5 0.3 2.3 0.268c0.724 0 1.464-0.076 2.199-0.225c0.738-0.15 1.413-0.406 2.005-0.764 c0.596-0.359 1.085-0.842 1.455-1.438c0.37-0.6 0.558-1.344 0.558-2.211c0-0.705-0.141-1.303-0.418-1.781 S137.037 24 136.6 23.697z" class="style1"/><rect x="140.6" y="16.4" width="2.6" height="14.6" class="style1"/><rect x="140.6" y="11" width="2.6" height="3.1" class="style1"/><path d="M156.737 18.172c-0.414-0.641-0.957-1.141-1.617-1.488c-0.773-0.404-1.631-0.609-2.552-0.609 c-1.252 0-2.325 0.243-3.189 0.721c-0.862 0.478-1.565 1.101-2.09 1.852c-0.524 0.75-0.904 1.583-1.127 2.5 c-0.223 0.889-0.336 1.775-0.336 2.633c0 1 0.1 1.9 0.4 2.82c0.271 0.9 0.7 1.7 1.2 2.4 c0.547 0.7 1.2 1.2 2 1.615c0.804 0.4 1.8 0.6 2.9 0.594c0.445 0 0.907-0.057 1.373-0.17 c0.461-0.111 0.9-0.279 1.303-0.496c0.398-0.211 0.767-0.488 1.097-0.826c0.234-0.242 0.441-0.52 0.616-0.826v0.531 c0 0.803-0.078 1.539-0.231 2.189c-0.151 0.641-0.399 1.199-0.74 1.658c-0.337 0.453-0.77 0.812-1.285 1.1 c-0.771 0.389-1.841 0.518-3.105 0.266c-0.407-0.076-0.793-0.209-1.144-0.389c-0.341-0.174-0.636-0.406-0.875-0.688 c-0.234-0.279-0.355-0.609-0.371-1.008l-0.005-0.119h-2.606l0.006 0.131c0.039 0.8 0.3 1.5 0.6 2 c0.376 0.5 0.9 1 1.4 1.338c0.576 0.3 1.2 0.6 1.9 0.734c0.697 0.1 1.4 0.2 2.1 0.2 c2.295 0 4.017-0.605 5.118-1.799c1.098-1.191 1.654-2.994 1.654-5.361V16.408h-2.465V18.172z M156.408 21.6 c0.145 0.6 0.2 1.2 0.2 1.824c0 0.65-0.077 1.312-0.231 1.965c-0.152 0.646-0.394 1.234-0.718 1.7 c-0.322 0.51-0.75 0.924-1.274 1.234c-0.52 0.311-1.165 0.467-1.917 0.467c-0.749 0-1.378-0.156-1.872-0.465 c-0.497-0.311-0.902-0.725-1.206-1.234c-0.305-0.51-0.524-1.088-0.65-1.719c-0.127-0.633-0.191-1.277-0.191-1.914 c0-0.672 0.078-1.322 0.231-1.936c0.154-0.611 0.398-1.157 0.729-1.619c0.328-0.461 0.755-0.834 1.273-1.111 c0.514-0.275 1.146-0.415 1.878-0.415c0.712 0 1.3 0.1 1.8 0.426c0.498 0.3 0.9 0.7 1.2 1.1 C156.035 20.4 156.3 21 156.4 21.576z" class="style1"/><path d="M174.359 19.287c-0.162-0.655-0.444-1.227-0.84-1.7c-0.401-0.475-0.93-0.851-1.573-1.115 c-0.639-0.262-1.446-0.396-2.4-0.396c-1.052 0-1.99 0.219-2.788 0.652c-0.712 0.385-1.316 0.962-1.797 1.717v-2.036h-2.464 v14.566h2.603v-8.211c0-0.631 0.087-1.219 0.258-1.75c0.17-0.528 0.428-0.993 0.764-1.382c0.336-0.388 0.764-0.695 1.271-0.908 c0.509-0.214 1.121-0.323 1.82-0.323c0.865 0 1.6 0.2 2 0.739c0.491 0.5 0.7 1.2 0.7 2.016v9.818h2.603v-9.539 C174.599 20.7 174.5 19.9 174.4 19.287z" class="style1"/></g><g><path d="M42.766 20.803c-0.182 0.438-0.296 0.906-0.341 1.395h7.956c-0.046-0.492-0.165-0.963-0.354-1.406 c-0.204-0.479-0.483-0.898-0.832-1.248c-0.348-0.346-0.768-0.627-1.249-0.833c-0.481-0.204-1.005-0.308-1.558-0.308 c-0.589 0-1.127 0.104-1.599 0.308c-0.474 0.207-0.885 0.491-1.22 0.843C43.231 19.9 43 20.3 42.8 20.803z" class="style0"/><path d="M79.842 26.881c0.158-0.361 0.239-0.705 0.239-1.018v-2.176c-0.194 0.113-0.419 0.205-0.674 0.3 c-0.347 0.098-0.705 0.178-1.064 0.238c-0.39 0.068-0.788 0.125-1.185 0.168c-0.41 0.047-0.813 0.105-1.196 0.2 c-0.396 0.074-0.752 0.166-1.093 0.273c-0.336 0.105-0.631 0.252-0.877 0.438c-0.243 0.182-0.44 0.414-0.588 0.7 c-0.146 0.279-0.22 0.633-0.22 1.051c0 0.4 0.1 0.7 0.2 0.922c0.147 0.2 0.3 0.5 0.6 0.6 c0.236 0.2 0.5 0.3 0.8 0.346c0.323 0.1 0.7 0.1 1 0.105c0.757 0 1.413-0.104 1.949-0.311 c0.536-0.203 0.979-0.467 1.317-0.777C79.438 27.6 79.7 27.2 79.8 26.881z" class="style0"/><path d="M63.222 18.828c-0.497-0.283-1.11-0.426-1.822-0.426c-0.733 0-1.366 0.139-1.879 0.4 c-0.517 0.276-0.945 0.649-1.273 1.111c-0.331 0.464-0.576 1.01-0.729 1.619c-0.154 0.615-0.231 1.266-0.231 1.9 c0 0.6 0.1 1.3 0.2 1.914c0.126 0.6 0.3 1.2 0.7 1.719c0.303 0.5 0.7 0.9 1.2 1.2 c0.495 0.3 1.1 0.5 1.9 0.465c0.749 0 1.394-0.158 1.917-0.467c0.524-0.311 0.952-0.727 1.273-1.234 c0.323-0.512 0.565-1.1 0.718-1.748c0.154-0.652 0.232-1.314 0.232-1.965c0-0.615-0.073-1.229-0.218-1.824 c-0.144-0.594-0.375-1.134-0.689-1.61C64.128 19.5 63.7 19.1 63.2 18.828z" class="style0"/><path d="M264.348 20.803c-0.181 0.434-0.295 0.902-0.34 1.395h7.956c-0.045-0.488-0.164-0.961-0.354-1.406 c-0.204-0.48-0.484-0.9-0.831-1.248c-0.348-0.346-0.768-0.627-1.25-0.833c-0.481-0.204-1.005-0.308-1.558-0.308 c-0.59 0-1.127 0.104-1.598 0.308c-0.473 0.206-0.884 0.49-1.221 0.843C264.814 19.9 264.5 20.3 264.3 20.803z" class="style0"/><path d="M35.883 21.277c-0.597-0.43-1.289-0.775-2.056-1.028c-0.758-0.25-1.544-0.469-2.337-0.653 c-0.755-0.176-1.517-0.345-2.33-0.516c-0.753-0.157-1.431-0.357-2.014-0.593c-0.579-0.234-1.049-0.539-1.396-0.905 c-0.335-0.357-0.506-0.831-0.506-1.41c0-0.626 0.121-1.156 0.357-1.573c0.239-0.418 0.56-0.756 0.956-1.004 c0.403-0.253 0.869-0.434 1.386-0.542c0.521-0.11 1.063-0.165 1.608-0.165c1.333 0 2.4 0.3 3.3 0.9 c0.843 0.6 1.3 1.6 1.5 3.044l0.012 0.111h2.734l-0.004-0.128c-0.038-1.102-0.256-2.064-0.65-2.863 c-0.393-0.797-0.926-1.467-1.585-1.995c-0.657-0.524-1.436-0.913-2.315-1.158c-0.878-0.242-1.84-0.364-2.858-0.364 c-0.913 0-1.812 0.118-2.677 0.35c-0.869 0.235-1.656 0.595-2.339 1.072c-0.686 0.479-1.244 1.099-1.657 1.8 c-0.416 0.743-0.625 1.635-0.625 2.65c0 0.9 0.2 1.7 0.6 2.307c0.368 0.6 0.9 1.1 1.5 1.5 c0.606 0.4 1.3 0.7 2.1 0.941c0.76 0.2 1.5 0.4 2.3 0.598c0.739 0.2 1.5 0.3 2.3 0.5 c0.752 0.2 1.4 0.4 2 0.662c0.572 0.3 1 0.6 1.4 1.012c0.34 0.4 0.5 0.9 0.5 1.6 c0 0.697-0.143 1.275-0.424 1.719c-0.282 0.445-0.658 0.801-1.118 1.061c-0.472 0.264-1.004 0.451-1.582 0.6 c-1.325 0.246-2.689 0.217-3.906-0.111c-0.672-0.18-1.273-0.465-1.786-0.848c-0.508-0.379-0.925-0.869-1.238-1.457 c-0.312-0.588-0.47-1.299-0.47-2.113v-0.125h-2.741v0.125c0 1.2 0.2 2.3 0.7 3.172c0.438 0.9 1 1.6 1.8 2.2 c0.757 0.6 1.6 1 2.6 1.297c0.994 0.3 2.1 0.4 3.2 0.418c0.91 0 1.837-0.111 2.756-0.336 c0.924-0.223 1.771-0.578 2.517-1.055c0.75-0.477 1.373-1.105 1.852-1.865c0.481-0.764 0.725-1.693 0.725-2.766 c0-0.979-0.187-1.814-0.555-2.484S36.485 21.7 35.9 21.277z" class="style2"/><path d="M51.825 18.931c-0.516-0.826-1.209-1.515-2.061-2.047c-0.855-0.536-1.945-0.808-3.237-0.808 c-0.991 0-1.917 0.19-2.751 0.565c-0.834 0.375-1.566 0.907-2.174 1.581c-0.608 0.675-1.087 1.485-1.424 2.4 c-0.335 0.924-0.506 1.939-0.506 3.023c0.038 1.1 0.2 2.1 0.5 3.053c0.291 0.9 0.7 1.8 1.3 2.4 c0.579 0.7 1.3 1.2 2.2 1.602c0.854 0.4 1.9 0.6 3 0.576c1.646 0 3.033-0.428 4.121-1.273 c1.089-0.844 1.804-2.09 2.122-3.701l0.03-0.15h-2.578l-0.021 0.1c-0.196 0.906-0.608 1.59-1.224 2 c-0.622 0.443-1.418 0.668-2.367 0.668c-0.754 0-1.417-0.125-1.969-0.377c-0.553-0.248-1.014-0.588-1.37-1.006 c-0.354-0.414-0.616-0.9-0.778-1.449c-0.153-0.52-0.225-1.055-0.219-1.627h10.716l0.005-0.119 c0.037-0.875-0.043-1.809-0.239-2.771C52.7 20.7 52.3 19.8 51.8 18.931z M46.39 18.402c0.553 0 1.1 0.1 1.6 0.3 c0.48 0.2 0.9 0.5 1.2 0.833c0.349 0.3 0.6 0.8 0.8 1.248c0.188 0.4 0.3 0.9 0.4 1.406h-7.956 c0.045-0.488 0.159-0.957 0.341-1.395c0.194-0.469 0.465-0.89 0.805-1.25c0.335-0.352 0.746-0.636 1.22-0.843 C45.263 18.5 45.8 18.4 46.4 18.402z" class="style2"/><path d="M65.458 18.173c-0.416-0.642-0.958-1.142-1.619-1.489c-0.772-0.404-1.63-0.609-2.551-0.609 c-1.252 0-2.325 0.243-3.189 0.721c-0.861 0.477-1.565 1.101-2.091 1.852c-0.523 0.747-0.901 1.58-1.126 2.5 c-0.223 0.887-0.336 1.773-0.336 2.633c0 1 0.1 1.9 0.4 2.82c0.271 0.9 0.7 1.7 1.2 2.4 c0.548 0.7 1.2 1.2 2 1.615c0.805 0.4 1.8 0.6 2.9 0.594c0.445 0 0.907-0.057 1.374-0.17 c0.463-0.111 0.902-0.279 1.302-0.496c0.401-0.211 0.771-0.49 1.098-0.826c0.235-0.242 0.442-0.52 0.618-0.826v0.531 c0 0.797-0.079 1.533-0.233 2.189c-0.152 0.643-0.401 1.201-0.74 1.658c-0.338 0.453-0.77 0.812-1.285 1.1 c-0.77 0.389-1.843 0.518-3.106 0.266c-0.408-0.078-0.793-0.209-1.144-0.389c-0.34-0.174-0.634-0.406-0.875-0.688 c-0.233-0.279-0.354-0.607-0.372-1.008l-0.005-0.119h-2.603l0.006 0.131c0.038 0.8 0.2 1.5 0.6 2 c0.375 0.5 0.9 1 1.4 1.338c0.576 0.3 1.2 0.6 1.9 0.734c0.697 0.1 1.4 0.2 2.1 0.2 c2.296 0 4.018-0.605 5.118-1.799c1.097-1.191 1.653-2.994 1.653-5.361V16.408h-2.463V18.173z M65.128 21.6 c0.145 0.6 0.2 1.2 0.2 1.824c0 0.65-0.078 1.312-0.232 1.965c-0.153 0.648-0.395 1.236-0.718 1.7 c-0.321 0.508-0.749 0.924-1.273 1.234c-0.523 0.309-1.167 0.467-1.917 0.467c-0.748 0-1.378-0.156-1.873-0.465 c-0.496-0.311-0.902-0.725-1.205-1.234c-0.305-0.508-0.523-1.088-0.65-1.719c-0.127-0.635-0.191-1.279-0.191-1.914 c0-0.67 0.078-1.32 0.231-1.936c0.153-0.609 0.398-1.155 0.729-1.619c0.328-0.462 0.756-0.835 1.273-1.111 c0.513-0.275 1.146-0.415 1.879-0.415c0.712 0 1.3 0.1 1.8 0.426c0.497 0.3 0.9 0.7 1.2 1.1 C64.753 20.4 65 21 65.1 21.576z" class="style2"/><path d="M83.307 28.98c-0.409 0-0.499-0.166-0.53-0.293c-0.062-0.246-0.094-0.645-0.094-1.188v-7.368 c0-0.849-0.165-1.55-0.488-2.086c-0.327-0.536-0.763-0.955-1.293-1.249c-0.527-0.292-1.124-0.488-1.773-0.582 c-1.414-0.206-2.917-0.191-4.242 0.113c-0.731 0.168-1.388 0.449-1.953 0.834c-0.568 0.388-1.028 0.901-1.368 1.5 c-0.341 0.624-0.532 1.397-0.569 2.298l-0.005 0.129h2.602l0.006-0.117c0.053-1.002 0.396-1.69 1.018-2.044 c0.641-0.366 1.459-0.552 2.43-0.552c0.367 0 0.7 0 1.1 0.082c0.362 0.1 0.7 0.2 1 0.3 c0.284 0.2 0.5 0.4 0.7 0.678c0.18 0.3 0.3 0.7 0.3 1.181c0 0.408-0.113 0.709-0.347 0.9 c-0.242 0.215-0.58 0.383-1.002 0.498c-0.426 0.117-0.937 0.209-1.517 0.275c-0.576 0.062-1.199 0.16-1.852 0.3 c-0.601 0.109-1.207 0.254-1.8 0.43c-0.588 0.18-1.122 0.432-1.585 0.752c-0.468 0.326-0.849 0.76-1.133 1.3 c-0.285 0.535-0.43 1.227-0.43 2.053c0 0.7 0.1 1.4 0.4 1.896c0.256 0.5 0.6 1 1 1.3 c0.436 0.3 1 0.6 1.6 0.727c0.581 0.1 1.2 0.2 1.9 0.227c1.009 0 1.961-0.18 2.831-0.533 c0.778-0.318 1.482-0.818 2.097-1.488c0.046 0.7 0.2 1.1 0.6 1.461c0.382 0.4 0.9 0.6 1.5 0.6 c0.735 0 1.31-0.133 1.754-0.406l0.06-0.035v-2.072l-0.166 0.059C83.739 28.9 83.5 29 83.3 28.98z M75.829 29 c-0.357 0-0.702-0.037-1.025-0.105c-0.315-0.07-0.594-0.188-0.831-0.346c-0.232-0.154-0.424-0.357-0.571-0.607 c-0.145-0.248-0.218-0.559-0.218-0.922c0-0.418 0.074-0.771 0.22-1.051c0.148-0.275 0.346-0.508 0.588-0.689 c0.246-0.186 0.541-0.332 0.877-0.438c0.34-0.107 0.697-0.199 1.093-0.273c0.383-0.074 0.786-0.133 1.196-0.18 c0.397-0.043 0.795-0.1 1.185-0.168c0.359-0.061 0.717-0.141 1.064-0.238c0.254-0.07 0.479-0.162 0.674-0.275v2.176 c0 0.312-0.081 0.656-0.239 1.018c-0.16 0.363-0.404 0.693-0.747 1.012c-0.339 0.311-0.781 0.574-1.317 0.8 C77.241 28.9 76.6 29 75.8 28.98z" class="style2"/><rect x="86.2" y="11" width="2.6" height="20" class="style2"/><rect x="178.4" y="11" width="2.9" height="20" class="style2"/><path d="M196.09 17.587c-0.399-0.474-0.929-0.85-1.572-1.115c-0.639-0.262-1.446-0.396-2.401-0.396 c-1.05 0-1.989 0.219-2.788 0.652c-0.711 0.385-1.314 0.962-1.796 1.718v-2.037h-2.463v14.566h2.602v-8.211 c0-0.629 0.086-1.217 0.258-1.75c0.17-0.526 0.428-0.992 0.764-1.382c0.336-0.389 0.764-0.695 1.271-0.908 c0.509-0.214 1.121-0.323 1.821-0.323c0.864 0 1.6 0.2 2 0.739c0.49 0.5 0.7 1.2 0.7 2.016v9.818h2.603v-9.539 c0-0.783-0.081-1.507-0.239-2.149C196.77 18.6 196.5 18.1 196.1 17.587z" class="style2"/><path d="M210.454 23.697c-0.445-0.311-0.959-0.562-1.529-0.748c-0.569-0.186-1.156-0.346-1.742-0.473 c-0.554-0.129-1.108-0.254-1.663-0.375c-0.544-0.119-1.041-0.266-1.478-0.438c-0.427-0.168-0.782-0.379-1.056-0.627 c-0.26-0.234-0.387-0.54-0.387-0.932c0-0.321 0.084-0.594 0.25-0.812c0.17-0.221 0.397-0.399 0.675-0.53 c0.283-0.133 0.602-0.228 0.949-0.28c0.726-0.113 1.47-0.115 2.2 0.04c0.363 0.1 0.7 0.2 1 0.4 c0.289 0.2 0.5 0.4 0.7 0.698c0.198 0.3 0.3 0.7 0.4 1.09l0.009 0.113h2.602l-0.009-0.131 c-0.056-0.882-0.248-1.63-0.57-2.227c-0.322-0.599-0.761-1.08-1.302-1.431c-0.536-0.348-1.166-0.597-1.871-0.737 c-0.692-0.139-1.45-0.209-2.253-0.209c-0.638 0-1.286 0.08-1.928 0.24c-0.646 0.159-1.236 0.408-1.754 0.7 c-0.518 0.332-0.95 0.771-1.285 1.308c-0.334 0.539-0.503 1.189-0.503 1.934c0 0.7 0.1 1.3 0.4 1.8 c0.273 0.5 0.6 0.9 1.1 1.184c0.449 0.3 1 0.5 1.5 0.738c0.55 0.2 1.1 0.3 1.7 0.5 c0.591 0.1 1.2 0.3 1.7 0.373c0.547 0.1 1 0.3 1.5 0.447c0.417 0.2 0.8 0.4 1 0.7 c0.244 0.3 0.4 0.6 0.4 1.02c0 0.414-0.101 0.744-0.306 1.006c-0.206 0.266-0.474 0.469-0.795 0.6 c-0.334 0.141-0.701 0.24-1.09 0.293c-0.918 0.119-1.728 0.1-2.521-0.055c-0.438-0.092-0.835-0.24-1.18-0.443 c-0.34-0.201-0.619-0.471-0.83-0.803c-0.21-0.332-0.324-0.758-0.341-1.27l-0.004-0.121h-2.604l0.005 0.1 c0.038 0.9 0.2 1.7 0.6 2.311c0.341 0.6 0.8 1.2 1.4 1.539c0.566 0.4 1.2 0.7 1.9 0.8 c0.716 0.2 1.5 0.3 2.3 0.268c0.723 0 1.463-0.076 2.198-0.225c0.739-0.15 1.415-0.406 2.006-0.764 c0.595-0.359 1.084-0.842 1.455-1.438c0.37-0.602 0.559-1.346 0.559-2.211c0-0.703-0.141-1.303-0.418-1.781 C211.267 24.4 210.9 24 210.5 23.697z" class="style2"/><path d="M217.833 12.115h-2.604v4.293h-2.437v2.325h2.437v8.987c0 0.7 0.1 1.2 0.2 1.6 c0.137 0.4 0.3 0.8 0.6 1c0.282 0.2 0.7 0.4 1.1 0.482c0.442 0.1 1 0.1 1.6 0.127h1.925v-2.326h-1.205 c-0.352 0-0.65-0.014-0.886-0.041c-0.204-0.021-0.366-0.074-0.479-0.156c-0.108-0.08-0.179-0.184-0.216-0.32 c-0.043-0.152-0.065-0.363-0.065-0.631v-8.767h2.853v-2.325h-2.853V12.115z" class="style2"/><rect x="223.2" y="16.4" width="2.6" height="14.6" class="style2"/><rect x="223.2" y="11" width="2.6" height="3.1" class="style2"/><path d="M232.704 12.115H230.1v4.293h-2.437v2.325h2.437v8.987c0 0.7 0.1 1.2 0.2 1.6 c0.137 0.4 0.3 0.8 0.6 1c0.281 0.2 0.7 0.4 1.1 0.482c0.443 0.1 1 0.1 1.6 0.127h1.924v-2.326h-1.205 c-0.352 0-0.65-0.014-0.887-0.041c-0.205-0.021-0.366-0.074-0.479-0.156c-0.108-0.078-0.179-0.182-0.217-0.32 c-0.043-0.154-0.064-0.367-0.064-0.631v-8.767h2.853v-2.325h-2.853V12.115z" class="style2"/><path d="M247.409 24.619c0 0.629-0.086 1.219-0.257 1.75c-0.17 0.527-0.427 0.992-0.764 1.4 c-0.338 0.389-0.765 0.695-1.27 0.908c-0.507 0.215-1.12 0.322-1.822 0.322c-0.865 0-1.553-0.248-2.044-0.738 c-0.491-0.49-0.739-1.17-0.739-2.018v-9.816h-2.602v9.539c0 0.8 0.1 1.5 0.2 2.146c0.159 0.7 0.4 1.2 0.8 1.7 c0.398 0.5 0.9 0.9 1.6 1.117c0.645 0.3 1.4 0.4 2.4 0.396c1.05 0 1.987-0.219 2.788-0.652 c0.713-0.387 1.316-0.963 1.796-1.719v2.039h2.465V16.408h-2.604L247.409 24.619z" class="style2"/><path d="M256.826 12.239l-0.001-0.124h-2.603v4.293h-2.438v2.325h2.438v8.987c0 0.7 0.1 1.2 0.2 1.6 c0.136 0.4 0.3 0.8 0.6 1c0.283 0.2 0.7 0.4 1.1 0.482c0.442 0.1 1 0.1 1.6 0.127h1.924v-2.326h-1.204 c-0.352 0-0.651-0.014-0.887-0.041c-0.205-0.021-0.367-0.074-0.48-0.156c-0.106-0.078-0.177-0.182-0.216-0.32 c-0.042-0.152-0.064-0.365-0.064-0.631v-8.767h2.852v-2.325h-2.852V12.239z" class="style2"/><path d="M274.716 24.402c0.037-0.875-0.043-1.807-0.237-2.771c-0.197-0.971-0.556-1.879-1.07-2.7 c-0.518-0.827-1.211-1.516-2.061-2.047c-0.855-0.536-1.944-0.808-3.237-0.808c-0.994 0-1.919 0.19-2.751 0.6 c-0.833 0.375-1.565 0.907-2.174 1.581c-0.607 0.673-1.086 1.484-1.423 2.41c-0.336 0.922-0.506 1.938-0.506 3 c0.037 1.1 0.2 2.1 0.5 3.053c0.291 0.9 0.7 1.8 1.3 2.422c0.579 0.7 1.3 1.2 2.2 1.6 c0.851 0.4 1.9 0.6 3 0.576c1.647 0 3.034-0.428 4.12-1.273c1.091-0.846 1.805-2.092 2.124-3.701l0.028-0.15h-2.578 l-0.021 0.1c-0.195 0.904-0.606 1.588-1.225 2.031c-0.622 0.443-1.417 0.668-2.365 0.668c-0.754 0-1.417-0.125-1.97-0.377 c-0.553-0.25-1.014-0.588-1.369-1.006c-0.356-0.416-0.618-0.902-0.778-1.449c-0.154-0.52-0.226-1.053-0.22-1.627h10.715 L274.716 24.402z M267.972 18.402c0.553 0 1.1 0.1 1.6 0.308c0.481 0.2 0.9 0.5 1.2 0.8 c0.347 0.3 0.6 0.8 0.8 1.248c0.19 0.4 0.3 0.9 0.4 1.406h-7.956c0.045-0.492 0.159-0.961 0.34-1.395 c0.196-0.47 0.466-0.891 0.806-1.25c0.337-0.353 0.748-0.637 1.221-0.843C266.844 18.5 267.4 18.4 268 18.402z" class="style2"/></g></g><polygon points="27.8,47.5 27.8,47.5 24.1,41.6 22.1,41.6 22.1,50.5 24,50.5 24,44.5 24,44.5 27.7,50.5 29.7,50.5 29.7,41.6 27.8,41.6" class="style2"/><path d="M41.708 42.512c-0.375-0.423-0.833-0.758-1.373-0.999c-0.541-0.24-1.156-0.361-1.846-0.361 c-0.69 0-1.305 0.121-1.845 0.361c-0.541 0.241-0.998 0.576-1.372 0.999c-0.375 0.425-0.662 0.924-0.861 1.5 c-0.2 0.571-0.3 1.188-0.3 1.842c0 0.6 0.1 1.2 0.3 1.811c0.199 0.6 0.5 1.1 0.9 1.5 c0.374 0.4 0.8 0.7 1.4 0.982c0.54 0.2 1.2 0.4 1.8 0.361c0.69 0 1.305-0.118 1.846-0.361 c0.54-0.237 0.998-0.568 1.373-0.982c0.374-0.418 0.661-0.907 0.86-1.474c0.199-0.565 0.299-1.169 0.299-1.811 c0-0.654-0.1-1.271-0.299-1.842C42.369 43.4 42.1 42.9 41.7 42.512z M40.778 46.942c-0.087 0.356-0.226 0.675-0.417 1 c-0.192 0.282-0.441 0.51-0.749 0.68c-0.308 0.17-0.682 0.255-1.123 0.255s-0.815-0.085-1.122-0.255 c-0.308-0.17-0.558-0.397-0.748-0.68c-0.192-0.282-0.331-0.601-0.418-0.957c-0.088-0.353-0.131-0.715-0.131-1.091 c0-0.389 0.043-0.767 0.131-1.133c0.087-0.368 0.226-0.693 0.418-0.978c0.19-0.288 0.44-0.516 0.748-0.687 c0.307-0.171 0.682-0.257 1.122-0.257s0.815 0.1 1.1 0.257c0.307 0.2 0.6 0.4 0.7 0.7 c0.191 0.3 0.3 0.6 0.4 0.978c0.088 0.4 0.1 0.7 0.1 1.133C40.909 46.2 40.9 46.6 40.8 46.942z" class="style2"/><path d="M54.685 49.452c-0.021-0.195-0.035-0.388-0.044-0.581c-0.008-0.19-0.017-0.355-0.025-0.499 c-0.017-0.224-0.047-0.445-0.093-0.668c-0.046-0.22-0.118-0.425-0.219-0.615c-0.099-0.193-0.228-0.356-0.387-0.495 c-0.157-0.138-0.357-0.238-0.598-0.305v-0.024c0.5-0.201 0.858-0.491 1.079-0.873c0.219-0.383 0.33-0.836 0.33-1.358 c0-0.333-0.06-0.648-0.18-0.947c-0.121-0.3-0.295-0.562-0.524-0.786c-0.229-0.225-0.503-0.402-0.823-0.53 c-0.32-0.129-0.681-0.193-1.079-0.193h-4.802v8.903h1.959v-3.479h1.957c0.49 0 0.8 0.1 1.1 0.3 c0.216 0.2 0.4 0.6 0.4 1.022c0.025 0.2 0 0.4 0.1 0.554c0.013 0.2 0 0.4 0.1 0.6 c0.021 0.2 0 0.4 0.1 0.535c0.029 0.2 0.1 0.3 0.1 0.467h1.958c-0.092-0.124-0.161-0.28-0.206-0.461 C54.738 49.8 54.7 49.6 54.7 49.452z M52.427 45.305c-0.229 0.199-0.563 0.299-1.004 0.299h-2.145v-2.506h2.145 c0.44 0 0.8 0.1 1 0.293c0.228 0.2 0.3 0.5 0.3 0.938C52.77 44.8 52.7 45.1 52.4 45.305z" class="style2"/><polygon points="58.5,43.2 61.2,43.2 61.2,50.5 63.1,50.5 63.1,43.2 65.8,43.2 65.8,41.6 58.5,41.6" class="style2"/><polygon points="75.5,45 71.9,45 71.9,41.6 70,41.6 70,50.5 71.9,50.5 71.9,46.6 75.5,46.6 75.5,50.5 77.5,50.5 77.5,41.6 75.5,41.6" class="style2"/><polygon points="89.8,47.7 89.8,47.7 88.3,41.6 86.4,41.6 84.9,47.6 84.9,47.6 83.5,41.6 81.5,41.6 83.8,50.5 85.8,50.5 87.3,44.4 87.3,44.4 88.9,50.5 90.8,50.5 93.2,41.6 91.3,41.6" class="style2"/><polygon points="99.2,46.6 103.5,46.6 103.5,45.1 99.2,45.1 99.2,43.2 103.9,43.2 103.9,41.6 97.2,41.6 97.2,50.5 104,50.5 104,48.8 99.2,48.8" class="style2"/><path d="M114.798 46.091c-0.161-0.185-0.34-0.341-0.536-0.463c-0.194-0.124-0.39-0.227-0.586-0.304 c-0.195-0.078-0.38-0.143-0.555-0.188c-0.174-0.045-0.316-0.082-0.424-0.105c-0.557-0.143-1.008-0.261-1.354-0.356 c-0.344-0.095-0.615-0.187-0.81-0.274c-0.196-0.086-0.327-0.184-0.393-0.293c-0.066-0.106-0.099-0.247-0.099-0.422 c0-0.184 0.042-0.339 0.125-0.469c0.083-0.128 0.188-0.233 0.316-0.318c0.13-0.082 0.272-0.141 0.431-0.174 c0.158-0.035 0.315-0.051 0.474-0.051c0.232 0 0.5 0 0.7 0.062s0.391 0.1 0.5 0.214c0.157 0.1 0.3 0.2 0.4 0.4 c0.096 0.2 0.2 0.4 0.2 0.66h1.895c0-0.517-0.098-0.955-0.293-1.317c-0.195-0.361-0.459-0.656-0.791-0.892 c-0.333-0.232-0.714-0.401-1.142-0.507c-0.428-0.102-0.875-0.154-1.341-0.154c-0.398 0-0.798 0.055-1.197 0.2 c-0.399 0.107-0.757 0.274-1.074 0.499c-0.315 0.226-0.571 0.505-0.766 0.841c-0.196 0.339-0.293 0.735-0.293 1.2 c0 0.4 0.1 0.8 0.2 1.044c0.154 0.3 0.4 0.5 0.6 0.713c0.25 0.2 0.5 0.3 0.8 0.5 c0.317 0.1 0.6 0.2 1 0.306c0.324 0.1 0.6 0.2 1 0.242c0.316 0.1 0.6 0.2 0.8 0.3 c0.25 0.1 0.5 0.2 0.6 0.382c0.154 0.1 0.2 0.3 0.2 0.585c0 0.226-0.058 0.41-0.174 0.6 c-0.116 0.145-0.262 0.258-0.437 0.342c-0.175 0.083-0.361 0.14-0.561 0.169s-0.387 0.043-0.562 0 c-0.266 0-0.518-0.031-0.753-0.094c-0.238-0.062-0.446-0.157-0.625-0.286c-0.178-0.13-0.321-0.297-0.43-0.505 c-0.108-0.208-0.162-0.461-0.162-0.76h-1.896c-0.008 0.5 0.1 1 0.3 1.421c0.211 0.4 0.5 0.7 0.8 1 c0.35 0.3 0.8 0.4 1.2 0.572c0.461 0.1 0.9 0.2 1.4 0.187c0.606 0 1.141-0.071 1.603-0.218 c0.461-0.146 0.849-0.344 1.16-0.598c0.312-0.254 0.546-0.556 0.705-0.903c0.157-0.35 0.237-0.729 0.237-1.138 c0-0.33-0.05-0.624-0.149-0.879C115.091 46.5 115 46.3 114.8 46.091z" class="style2"/><polygon points="118.9,43.2 121.6,43.2 121.6,50.5 123.5,50.5 123.5,43.2 126.2,43.2 126.2,41.6 118.9,41.6" class="style2"/><polygon points="132.3,46.6 136.6,46.6 136.6,45.1 132.3,45.1 132.3,43.2 137,43.2 137,41.6 130.4,41.6 130.4,50.5 137.1,50.5 137.1,48.8 132.3,48.8" class="style2"/><path d="M148.921 49.452c-0.021-0.195-0.035-0.388-0.043-0.581c-0.009-0.19-0.017-0.355-0.025-0.499 c-0.017-0.224-0.048-0.445-0.094-0.668c-0.046-0.22-0.118-0.425-0.218-0.615c-0.1-0.193-0.229-0.356-0.386-0.495 c-0.158-0.138-0.358-0.238-0.599-0.305v-0.024c0.499-0.201 0.859-0.491 1.079-0.873c0.22-0.383 0.331-0.836 0.331-1.358 c0-0.333-0.061-0.648-0.182-0.947c-0.12-0.3-0.295-0.562-0.524-0.786c-0.229-0.225-0.503-0.402-0.823-0.53 c-0.32-0.129-0.68-0.193-1.079-0.193h-4.802v8.903h1.958v-3.479h1.958c0.491 0 0.8 0.1 1.1 0.3 c0.216 0.2 0.4 0.6 0.4 1.022c0.025 0.2 0 0.4 0.1 0.554c0.012 0.2 0 0.4 0.1 0.6 c0.021 0.2 0 0.4 0.1 0.535c0.029 0.2 0.1 0.3 0.1 0.467h1.958c-0.091-0.124-0.16-0.28-0.205-0.461 C148.976 49.8 148.9 49.6 148.9 49.452z M146.664 45.305c-0.229 0.199-0.563 0.299-1.004 0.299h-2.145v-2.506h2.145 c0.441 0 0.8 0.1 1 0.293c0.229 0.2 0.3 0.5 0.3 0.938C147.006 44.8 146.9 45.1 146.7 45.305z" class="style2"/><polygon points="159.4,47.5 159.3,47.5 155.6,41.6 153.7,41.6 153.7,50.5 155.5,50.5 155.5,44.5 155.5,44.5 159.2,50.5 161.2,50.5 161.2,41.6 159.4,41.6" class="style2"/><path d="M178.224 46.899c0 0.667-0.133 1.155-0.4 1.469c-0.265 0.311-0.747 0.466-1.445 0.5 c-0.399 0-0.717-0.052-0.954-0.161s-0.422-0.254-0.555-0.437c-0.134-0.184-0.221-0.392-0.263-0.623 c-0.041-0.232-0.062-0.471-0.062-0.714v-5.535h-1.958v5.535c0 1.2 0.3 2.1 1 2.701c0.66 0.6 1.6 0.9 2.8 0.9 c1.188 0 2.121-0.295 2.793-0.885c0.673-0.589 1.011-1.487 1.011-2.695v-5.535h-1.958V46.899z" class="style2"/><polygon points="190.7,47.5 190.6,47.5 186.9,41.6 185,41.6 185,50.5 186.8,50.5 186.8,44.5 186.8,44.5 190.5,50.5 192.5,50.5 192.5,41.6 190.7,41.6" class="style2"/><rect x="197.3" y="41.6" width="2" height="8.9" class="style2"/><polygon points="207.2,47.8 207.2,47.8 205.2,41.6 203.2,41.6 206.1,50.5 208.3,50.5 211.2,41.6 209.2,41.6" class="style2"/><polygon points="217.1,46.6 221.4,46.6 221.4,45.1 217.1,45.1 217.1,43.2 221.8,43.2 221.8,41.6 215.1,41.6 215.1,50.5 221.9,50.5 221.9,48.8 217.1,48.8" class="style2"/><path d="M233.679 49.452c-0.021-0.195-0.036-0.388-0.043-0.581c-0.008-0.19-0.016-0.355-0.025-0.499 c-0.017-0.224-0.047-0.445-0.092-0.668c-0.046-0.22-0.119-0.425-0.219-0.615c-0.1-0.193-0.229-0.356-0.386-0.495 c-0.158-0.138-0.357-0.238-0.599-0.305v-0.024c0.5-0.201 0.858-0.491 1.079-0.873c0.22-0.383 0.331-0.836 0.331-1.358 c0-0.333-0.06-0.648-0.181-0.947c-0.121-0.3-0.295-0.562-0.523-0.786c-0.229-0.225-0.504-0.402-0.823-0.53 c-0.32-0.129-0.68-0.193-1.08-0.193h-4.801v8.903h1.958v-3.479h1.958c0.491 0 0.8 0.1 1.1 0.3 c0.215 0.2 0.4 0.6 0.4 1.022c0.025 0.2 0 0.4 0.1 0.554c0.013 0.2 0 0.4 0.1 0.6 c0.021 0.2 0 0.4 0.1 0.535c0.028 0.2 0.1 0.3 0.1 0.467h1.958c-0.091-0.124-0.16-0.28-0.205-0.461 C233.733 49.8 233.7 49.6 233.7 49.452z M231.422 45.305c-0.229 0.199-0.562 0.299-1.003 0.299h-2.146v-2.506h2.146 c0.441 0 0.8 0.1 1 0.293c0.229 0.2 0.3 0.5 0.3 0.938C231.765 44.8 231.7 45.1 231.4 45.305z" class="style2"/><path d="M244.828 46.091c-0.161-0.185-0.34-0.341-0.535-0.463c-0.195-0.124-0.391-0.227-0.586-0.304 c-0.196-0.078-0.38-0.143-0.555-0.188c-0.175-0.045-0.316-0.082-0.425-0.105c-0.556-0.143-1.008-0.261-1.353-0.356 c-0.344-0.095-0.615-0.187-0.81-0.274c-0.196-0.086-0.327-0.184-0.394-0.293c-0.066-0.106-0.1-0.247-0.1-0.422 c0-0.184 0.042-0.339 0.125-0.469c0.083-0.128 0.189-0.233 0.318-0.318c0.13-0.082 0.271-0.141 0.431-0.174 c0.158-0.035 0.315-0.051 0.474-0.051c0.233 0 0.5 0 0.7 0.062c0.206 0 0.4 0.1 0.6 0.2 c0.155 0.1 0.3 0.2 0.4 0.412c0.094 0.2 0.2 0.4 0.2 0.66h1.896c0-0.517-0.098-0.955-0.293-1.317 c-0.195-0.361-0.46-0.656-0.793-0.892c-0.332-0.232-0.712-0.401-1.142-0.507c-0.427-0.102-0.875-0.154-1.339-0.154 c-0.399 0-0.799 0.055-1.198 0.162s-0.757 0.274-1.072 0.499c-0.316 0.226-0.571 0.505-0.767 0.8 c-0.196 0.339-0.294 0.735-0.294 1.194c0 0.4 0.1 0.8 0.2 1.044c0.153 0.3 0.4 0.5 0.6 0.7 c0.249 0.2 0.5 0.3 0.8 0.467c0.316 0.1 0.6 0.2 1 0.306c0.324 0.1 0.6 0.2 1 0.2 c0.317 0.1 0.6 0.2 0.8 0.263c0.248 0.1 0.5 0.2 0.6 0.382c0.153 0.1 0.2 0.3 0.2 0.6 c0 0.226-0.057 0.41-0.174 0.557c-0.117 0.145-0.262 0.258-0.437 0.342c-0.174 0.083-0.361 0.14-0.561 0.2 c-0.2 0.029-0.387 0.043-0.562 0.043c-0.267 0-0.517-0.031-0.754-0.094c-0.237-0.062-0.444-0.157-0.624-0.286 c-0.18-0.13-0.322-0.297-0.431-0.505c-0.109-0.208-0.162-0.461-0.162-0.76h-1.896c-0.008 0.5 0.1 1 0.3 1.4 c0.212 0.4 0.5 0.7 0.8 0.985c0.35 0.3 0.8 0.4 1.2 0.572c0.461 0.1 0.9 0.2 1.4 0.2 c0.606 0 1.141-0.071 1.603-0.218c0.461-0.146 0.848-0.344 1.159-0.598c0.312-0.254 0.548-0.556 0.706-0.903 c0.158-0.35 0.237-0.729 0.237-1.138c0-0.33-0.05-0.624-0.15-0.879C245.122 46.5 245 46.3 244.8 46.091z" class="style2"/><rect x="249.6" y="41.6" width="2" height="8.9" class="style2"/><polygon points="255.7,43.2 258.4,43.2 258.4,50.5 260.4,50.5 260.4,43.2 263,43.2 263,41.6 255.7,41.6" class="style2"/><polygon points="272.6,41.6 270.5,45.1 268.4,41.6 266.2,41.6 269.5,47 269.5,50.5 271.4,50.5 271.4,47.1 274.8,41.6" class="style2"/></g></svg>